/* XPM */
static char *_ff8d8837b1c4b5782f1f9c5de276f37T7rcrjros7fBw2bw[] = {
/* columns rows colors chars-per-pixel */
"50 50 150 2 ",
"   c #664635",
".  c #6E4434",
"X  c #6C4B37",
"o  c #6D4D3C",
"O  c #714737",
"+  c #744C36",
"@  c #794F36",
"#  c #734D3B",
"$  c #7A4E3D",
"%  c #67513C",
"&  c #6E523E",
"*  c #73513D",
"=  c #7B533E",
"-  c #7E4E40",
";  c #6E5343",
":  c #745442",
">  c #7B5543",
",  c #765946",
"<  c #7B5945",
"1  c #725648",
"2  c #755A4A",
"3  c #7C5B4A",
"4  c #7E604E",
"5  c #7D6050",
"6  c #81563E",
"7  c #81583F",
"8  c #815644",
"9  c #845B45",
"0  c #8B5E46",
"q  c #835D4B",
"w  c #8C5E4C",
"e  c #915E4C",
"r  c #875F53",
"t  c #8E5F51",
"y  c #915F50",
"u  c #856046",
"i  c #8B6147",
"p  c #84614D",
"a  c #8D634C",
"s  c #8E684D",
"d  c #906147",
"f  c #90634E",
"g  c #92624E",
"h  c #92634F",
"j  c #91624D",
"k  c #94614C",
"l  c #95624D",
"z  c #94614E",
"x  c #91654C",
"c  c #91644D",
"v  c #92644D",
"b  c #90664D",
"n  c #91644F",
"m  c #92654E",
"M  c #93654E",
"N  c #90664E",
"B  c #91674E",
"V  c #91674F",
"C  c #93664F",
"Z  c #94644E",
"A  c #94664F",
"S  c #91624C",
"D  c #90684E",
"F  c #90684F",
"G  c #91694F",
"H  c #866351",
"J  c #8B6151",
"K  c #896350",
"L  c #8B6250",
"P  c #8C6150",
"I  c #8C6151",
"U  c #8E6050",
"Y  c #8F6151",
"T  c #8D6251",
"R  c #8C6351",
"E  c #8E6350",
"W  c #8D6353",
"Q  c #8E6352",
"!  c #896451",
"~  c #886551",
"^  c #8B6550",
"/  c #8A6650",
"(  c #8B6751",
")  c #896452",
"_  c #8A6552",
"`  c #8B6552",
"'  c #8B6653",
"]  c #8D6450",
"[  c #8F6451",
"{  c #8E6551",
"}  c #8C6651",
"|  c #8F6650",
" . c #8F6453",
".. c #8D6752",
"X. c #8F6652",
"o. c #886255",
"O. c #8D6355",
"+. c #8B6656",
"@. c #8C6554",
"#. c #8E6454",
"$. c #8F6454",
"%. c #8F6555",
"&. c #8D6657",
"*. c #8C6352",
"=. c #8D6951",
"-. c #8F6952",
";. c #8B6854",
":. c #8E6A54",
">. c #8C6956",
",. c #8F6956",
"<. c #8E6B57",
"1. c #8D6954",
"2. c #8C6659",
"3. c #8C6B58",
"4. c #906151",
"5. c #916250",
"6. c #906350",
"7. c #936251",
"8. c #926351",
"9. c #906252",
"0. c #916353",
"q. c #926353",
"w. c #916451",
"e. c #936450",
"r. c #926550",
"t. c #906650",
"y. c #906751",
"u. c #916751",
"i. c #936651",
"p. c #926552",
"a. c #976451",
"s. c #946750",
"d. c #906554",
"f. c #906555",
"g. c #936555",
"h. c #916655",
"j. c #926756",
"k. c #946656",
"l. c #926352",
"z. c #936B51",
"x. c #916852",
"c. c #926852",
"v. c #906A53",
"b. c #956851",
"n. c #916854",
"m. c #906A55",
"M. c #916854",
"N. c #916759",
"B. c #946958",
"V. c #956C58",
/* pixels */
"u u w w a u u u 9 0 q <     3 q q 9 9 9 9 9 9 u = 7 9 9 9 = 8 8 @ 9 = > q > > q q 0 a 0 7 6 9 a 9 9 ",
"a a e.v c a a a 8.e.g.~ : : +.N.| e.e.e.s G G G a s G G e.a e.c a c.a ~ ~ < q P | a a a c c c G c e.",
"a c Z v v a a a v v e.K : > %.g.a a a e.c c a a a s c a a a v c a G a | q > w a 8.v w v Z b.c a v v ",
"a c k k a a a a v v e.a > > %.8.a v a e.c c a a a a a a a a a a a a a | 8 * K | w w v v w w a a a a ",
"c c k e k a a a Z k e.a < 8 g.8.e.e.c c c c G G G G c c c c e.c i.a a | > # P | w v i.v k w v e.c c ",
"c c k e k a a a e e v a > < k.8.v v a a a a a a a a a a c c c v c a a a $ O w P 8.v k v v c e.e.v v ",
"a v e e k v a a v v 8.8.< 8 g.e.e.c c c a a a a s a a c c c c v a a a | > # w g.8.w w e v c v a c c ",
"e.a v k c c | a v e 8.P > > %.P c c c a a a a a a a a a c c c a a a a ~ > # q K a v v v v v v v c c ",
"| | a v P | | | a w g.%.< 3 O.P a c a a a | a a | a a | a a c a a a p ~ q # < >.P a a a a a | e.e.e.",
"~ a P a | ~ a p B.P P p 3 q %.P P a a a a e.| a | a a c.e.c c a a a ~ >.q * < ~ n.e.c a a a | | P a ",
"3.>.%.n.>.~ ~ ~ P w P p , < o.%.a a | a | | | | n.| =.c.c.c.c.| =.=.~ ;.p < p >.| a a a a | | | a | ",
"3 < > 8 > : : < 8 8 q q : * > q q a a u q q q q q 8 < 8 8 9 q 9 9 < # > 3 < q q 9 9 9 0 a a K a ~ a ",
": * = > = * * > $ + # # * * # . = = > = = > > > > > > > = < 8 < # # X > q q q < > = 6 6 8 > > > > * ",
"3 p P | | ~ a ~ a a a K ~ ~ p q a a a a K ~ ~ ~ < q p ~ ~ a ~ a q a p ~ +.~ %.a e.e.c c e.| P P q < ",
"< u | e.| =.=.a a i.c.| =.~ | n.~ ~ ~ ~ ~ >.>.;.> 3 +.>.>.>.>.~ e.V.n.%.K K >.| P v v v 8.e.| | K 3 ",
"< p | a a a a a c e.a a >.>.| P | | a K ~ %.+.~ * < K +.K a | | 0 e.P P | %.n.a v a k k v v a K q : ",
"< a | a e.| a a a c i.c.a q q 0 a a a | ~ ~ ~ ~ > 3 %.q K a a a e y w a w a a c c a w v i.v v | p * ",
"8 a e.a c c c v Z v a 0 9 9 0 v a x v a | a ~ ~ > > | w a a v a e e w w a a a c x k k c v v a a p * ",
"9 a e.a v Z Z Z v k k k w 0 w v k k k k a a P | > 8 a 0 k k k w v a a a a a a a a a x c v a a a p # ",
"9 a a a v c c v k k v Z i.v v a k d k a a a P | 8 8 e.w v v k w w a a a a a a a a a a x a a a a K * ",
"9 a a a a a a a c.a a a a a a c a a w w w P P g.8 q %.w 8.8.8.a w a a a a a a a a a a a a a a | ~ > ",
"q a a a | s a a c a a a a a a e.a a a w w P 8.O.> 8 0.t 8.8.8.8.w a a a a a a a e.a w k e.c e.e.%.> ",
"q a a a e.c v v a a 8.7.e.8.t v k a a a a a v e.$ 8 e.w v a k e e y e w w a v v 7.v e k 7.k 7.8.%.: ",
"p a a a P P a 8.a w P 8.P P t P a a a a a a a ~ = 8 e.a a 0 0 0 8.t t w w a P 8.P 8.8.7.g.v v P K & ",
"< : * * : < < > < : q 3 3 > 3 3 2 3 3 3 2 2 2 2 1 1 1 1 1 1 1 : : : : & , & , : * : > * : < < < < < ",
": : : : : < < 3 p p K p , 3 H H 2 , 1 ; ; ; 1 1 1 1 1 2 2 2 2 2 , , , , 2 % , 3 : < < < < 3 p p 3 < ",
"~ +.%.%.%.%.g.n.P g.K K # > 2.K %.n.g.| P ~ | ~ K K w t K P P P K q K +.K : 3 +.K o.K K K +.%.| | | ",
"P %.%.%.P a P P w | K O.# # 2.q 0 w 8.v e w w 0 8.8.y v 8.y y w g.K P %.K # 3 %.O.0.P w w P 8.a e.c ",
"| | | | | | | | a a ~ ~ * X ;.p P v e 0 w w e 8.e w y y y y y t 8.w a P p * q P w w w w w v v v a a ",
"a a a a v a a a c.a | p : X ~ K a v w 0 0 w w e w y 8.8.g.8.8.8.v a a a a > 0 e.P a e v v v v k c c ",
"k v k v Z Z Z k c a c q = = a a 0 a a a a a a 0 a a a a a a a 0 a w a a q * 9 a a w w w w 0 0 0 a c ",
"e w k k k k k k 0 v c a = q w a a a a a a s a i i i a a a a a a a a a a u + < a a a w k c c k x a a ",
"a a a a v c c c a a a q q q | ~ a a a a a a a a a a a a a a a a a a a a a * < a q a a a c v a i a a ",
"a a 0 i a a v v a a a w q q +.K P a a a a a a a w a a a a a a a a 0 a a 0 # > a K a a a a v v k w w ",
"v v e v 7.7.7.7.e e 8.w 0 w O.t P t a a a a a a v 8.8.8.8.8.8.v 8.w v 8.w $ 0 8.t w w e e e e e a e.",
"P a w a 8.8.8.8.a a 8.a q w O.o.O.P w a a a 8.8.8.8.P 8.8.8.P a e.w P P q $ w K 0.0.k.k.k.k.g.8.w | ",
"p p p p p p p p p p p 3 , 2 4 p H K p p p p p p q q q r K p q q p 4 H p 3 : 4 4 3 3 q q q q q 3 q q ",
", , , , > > : : : * * & X o : : : , > < < : * * X o : : : : * * : : < , , o , , , , : : : : > > : o ",
"K O.P P K w w a e.a a a w w P K O.+.%.%.%.~ K p > q r o.o.K K a w P P w 8.w O.t t t w w w w w K K o ",
"P 8.0.0.P w w v 8.w a 8.8.8.e.P P P P a P P | %.8 q K O.O.P a 8.w 8.8.w k.t 8.t y y y y 7.v y w o.  ",
"q ~ ~ K | a a a a a a a a a a | a a v w 0 9 q q 8 8 K w 8.e.e.c v a a a a P w w P P w a w a a a K o ",
"q K ~ a a a a a a a a a a a a a a a a a w 0 w a > > P w e.v a a a a a a a a a a a a a a w a a a K o ",
"q a a a a a a a k k a k k v k a a a a a a a a a > > P a a a i 0 a a a a a a a w w w w a a a a a ~ * ",
"q a a a a a a k k k k k k k k a a a a a a a a a > > P 0 a i a i c k k k k k v w v e w k k k k a ~ * ",
"q a a a w w w k k k e e e v e e e e e k v v v a > 8 8.w v k k k k k k k e e e e e e e w w e k a >.> ",
"q a a a a a w a v v e e e e e e e e e k k v 8.P - 8 0.8.i.k k k k a a a k k v e v w w 0 0 w a a p # ",
"q K P a a a w a a w w w y y y w w w a a a a a ~ > 8 g.| k.c k k a a a a v v v a a a a a a a a a >.: ",
"q K K K ~ K a K a a w w P P P P w a a a a p K K 3 3 %.K >.| a c a a a a a a P K | | | | | | a ~ ~ * ",
"K K +.q K K K q q q K K K K K K +.p q K ~ ~ K K 2 5 o.+.o.~ %.| ~ ~ K ~ K K K K q 3 q q ~ K +.p 4 * ",
"3 3 3 3 3 3 q 3 > 3 3 3 3 q q 3 3 : > > 3 3 q 3 ; 2 3 3 3 3 q q > , : : : o o : o o : : 3 3 3 , p 1 "
};
