/* XPM */
static char * coin_xpm[] = {
"50 50 240 2",
"  	c #E3CD9C",
". 	c #E1CB9A",
"+ 	c #DFC998",
"@ 	c #DEC897",
"# 	c #DDC796",
"$ 	c #DDC798",
"% 	c #D8C394",
"& 	c #DBC594",
"* 	c #DDCD9A",
"= 	c #E1D19E",
"- 	c #D6C492",
"; 	c #DAC896",
"> 	c #E2CC9B",
", 	c #DAC493",
"' 	c #E5D19F",
") 	c #E5CF9E",
"! 	c #E1CB9C",
"~ 	c #DBCB98",
"{ 	c #DFCF9C",
"] 	c #E8D2A3",
"^ 	c #E7D1A0",
"/ 	c #E0C898",
"( 	c #D2BE8C",
"_ 	c #D7C293",
": 	c #E4CFA0",
"< 	c #D9C392",
"[ 	c #595548",
"} 	c #625D4C",
"| 	c #6A644B",
"1 	c #564D30",
"2 	c #D4C08E",
"3 	c #6A6552",
"4 	c #766F4F",
"5 	c #8B8465",
"6 	c #938A67",
"7 	c #847B5A",
"8 	c #685E3B",
"9 	c #D5BF8E",
"0 	c #101010",
"a 	c #585853",
"b 	c #817C6E",
"c 	c #B4AF98",
"d 	c #E2D9B3",
"e 	c #F7EDC4",
"f 	c #F9EDBC",
"g 	c #FDEEB3",
"h 	c #FDEDAB",
"i 	c #F8E7A3",
"j 	c #F7E497",
"k 	c #DFCE8A",
"l 	c #B8A866",
"m 	c #534929",
"n 	c #737067",
"o 	c #A8A494",
"p 	c #BBB49C",
"q 	c #CAC4AA",
"r 	c #F4E8B9",
"s 	c #FEF0BC",
"t 	c #FEEBA3",
"u 	c #FEEA9C",
"v 	c #E2CF83",
"w 	c #CBB86D",
"x 	c #A7954C",
"y 	c #675A2A",
"z 	c #D7C295",
"A 	c #615F58",
"B 	c #999587",
"C 	c #E3DDC4",
"D 	c #F4ECCB",
"E 	c #FEF4CB",
"F 	c #FEF2C4",
"G 	c #FEE894",
"H 	c #FDE793",
"I 	c #FEE88D",
"J 	c #F6DE81",
"K 	c #DAC368",
"L 	c #908040",
"M 	c #DBC699",
"N 	c #86847D",
"O 	c #DED8C2",
"P 	c #FDE483",
"Q 	c #FDE37B",
"R 	c #F9DE7A",
"S 	c #F6D96B",
"T 	c #CFB34D",
"U 	c #705D1E",
"V 	c #4A3D13",
"W 	c #FEF5D4",
"X 	c #FDE68B",
"Y 	c #FADE72",
"Z 	c #F5D767",
"` 	c #FBDD6B",
" .	c #F5D563",
"..	c #B69B39",
"+.	c #877125",
"@.	c #4B3907",
"#.	c #DDCB9D",
"$.	c #FFF9D8",
"%.	c #FEF7DC",
"&.	c #FEFAEB",
"*.	c #FEF9E4",
"=.	c #F2CD4C",
"-.	c #F5D35B",
";.	c #FAD95D",
">.	c #6B5510",
",.	c #D6C494",
"'.	c #EDC544",
").	c #F2CE52",
"!.	c #F7D970",
"~.	c #FADB64",
"{.	c #E9BB2B",
"].	c #F3CF58",
"^.	c #EBC54A",
"/.	c #CEAB35",
"(.	c #FEFBF2",
"_.	c #F5D254",
":.	c #E6B932",
"<.	c #E9BD3C",
"[.	c #846915",
"}.	c #59450B",
"|.	c #F1CA43",
"1.	c #F8D65A",
"2.	c #F1C83F",
"3.	c #E3B11C",
"4.	c #DBA512",
"5.	c #C99716",
"6.	c #956E09",
"7.	c #BFB9A0",
"8.	c #E7B825",
"9.	c #D49E1A",
"0.	c #E4B838",
"a.	c #E2B32A",
"b.	c #AA8314",
"c.	c #3D2A00",
"d.	c #E1CC97",
"e.	c #EDC43C",
"f.	c #DEAB1A",
"g.	c #C98E0A",
"h.	c #DCAC2C",
"i.	c #EDC134",
"j.	c #BA8818",
"k.	c #5C4203",
"l.	c #E2AE19",
"m.	c #EABD31",
"n.	c #E1AC15",
"o.	c #CE9204",
"p.	c #DDAD35",
"q.	c #CA9B24",
"r.	c #835A02",
"s.	c #DED6B3",
"t.	c #F0C63D",
"u.	c #D19604",
"v.	c #C48B14",
"w.	c #C48D21",
"x.	c #D6A827",
"y.	c #AB7A06",
"z.	c #533C03",
"A.	c #E5B523",
"B.	c #E9B927",
"C.	c #D59B05",
"D.	c #C08209",
"E.	c #B47613",
"F.	c #C68B05",
"G.	c #DEAA14",
"H.	c #FEF0B7",
"I.	c #F5D14E",
"J.	c #BB7C04",
"K.	c #AD6C0B",
"L.	c #D49B0B",
"M.	c #634403",
"N.	c #5D5435",
"O.	c #DBA40C",
"P.	c #A9660B",
"Q.	c #664806",
"R.	c #331F01",
"S.	c #B77A06",
"T.	c #DDAB22",
"U.	c #6B4A04",
"V.	c #3B2401",
"W.	c #72673E",
"X.	c #958858",
"Y.	c #DAA30C",
"Z.	c #CA8E04",
"`.	c #B47205",
" +	c #A66306",
".+	c #D6A21B",
"++	c #452C01",
"@+	c #FDE174",
"#+	c #B16F05",
"$+	c #A15D06",
"%+	c #CC9309",
"&+	c #8B7D48",
"*+	c #C28405",
"=+	c #A96506",
"-+	c #9A560A",
";+	c #DAA51B",
">+	c #D6A415",
",+	c #BC8509",
"'+	c #523501",
")+	c #E9D586",
"!+	c #A6630A",
"~+	c #A66812",
"{+	c #A97204",
"]+	c #4B3201",
"^+	c #FDE16D",
"/+	c #DDC893",
"(+	c #D3BF6F",
"_+	c #975307",
":+	c #E0CB96",
"<+	c #C2AE60",
"[+	c #9E5C0D",
"}+	c #966804",
"|+	c #13120B",
"1+	c #EED067",
"2+	c #C38C1C",
"3+	c #D59F15",
"4+	c #744C03",
"5+	c #7A6A2F",
"6+	c #A28E41",
"7+	c #D0970C",
"8+	c #B47815",
"9+	c #DEC257",
"0+	c #947B27",
"a+	c #E8BF44",
"b+	c #5C3A03",
"c+	c #5F4D13",
"d+	c #EFCE53",
"e+	c #B3730C",
"f+	c #B87D15",
"g+	c #C18717",
"h+	c #EBC848",
"i+	c #987B1D",
"j+	c #B29024",
"k+	c #C4930E",
"l+	c #E3CEA1",
"m+	c #0F0B00",
"n+	c #775607",
"o+	c #745508",
"p+	c #E8D4A2",
"q+	c #DAC399",
"  . + . + @ @ + @ . + # $ . + % & * = * - ; > + + > . @ . . . . > , ' + % ) ) $ ! ! . + ; ; ; @ ; ; ",
". + + . . + . . # + + $ +     ! + ~ { = + + + & .   . # # . . ) > ; + >     . ] . . + + @ @ @ * ; + ",
". + + . . . . > @ .   . + ! ! + * & ;   > + @ , .   + & # + . ) > ' @ + ^ . . ] $ / . . + + @ @ @ @ ",
". . . . . + + . @ .   ! . . + &   ; & ~ + > > & +   . # @ @ # + @ ' @ @ ! + ! $ . . ! ! + + @ @ @ @ ",
"+ @ + . + @ @ . # # # $ . ! ! + * + + & & >   @ + > + ; + @ @ @ & @ & + $ # ) % ! !     > + + + @ @ ",
"# # @ + @ # @ . + # & & $ ! ! ! & + > @ , @ + , @ > + & @ + + > @ ( _   + & ! + ^ ^ :   + + @ @ & & ",
", & # @ # & # @ . @ # # # $ $ $ < & + + & # [ } | | [ 1 ~ + + > > 2 < @ + & & . ^ :   + + @ @ @ , , ",
"& # # @ # < < # , & $ + + & & & & , @ > 3 4 5 6 6 6 5 7 | 8 & & . . @ 9 & + ( & + + & & & @ +   # # ",
"# # @ + + @ # & , & + !   + + + 0 a b c d e f g g h i i j k l 4 m # & & & & $ . + + + + & , @ > . + ",
"@ # # .   . @ # . + + . + + + n o p q d r s g h h t t t u j v w l x y + + $ & & & z & + > + + > + + ",
"+ , & . ) . # & # # $ + + + A B C D E F s g g h h t u u G H I I J K L m   + $ $ M & & + > + @ > , , ",
". # # . > # , # & # + . a N O D F s s F F E F F s h t H P Q R P P Q S T U V $ + + + + + @ , @ > # @ ",
") > .   > @ @ > . >   a B q D E F E W W W W E s g h t u X Q Y Z Z ` `  ...+.@.#.+ ~ & ~ + @ @ > @ + ",
")       . . . ) . > ! N q $.F F E %.&.&.*.W F h u u t t H P ` =.=.-.` ` ;...>.+ { & ,.+     @ @ & & ",
"@ . > . . . @ # , # A O D F F W &.&.&.%.F h X  .'.).!.G G X Q ~.=.{.'.].~.^./.@.{ ~ ~ {   > @ @ + + ",
"& . > . . . # 9 < n B D E F W *.(.&.*.F j R -.).).-.R X u G P ` _.{.:.<.-.).<.[.}.#.    + & + ' + * ",
"# < # . @ # # 9 0 o C F F F &.(.&.*.W t Z |.{.-.P P P X h t P ` 1.2.3.4.^.=.=.5.6.@ + + ! ! + # < , ",
"# # . > . . . @ a 7.E s E %.&.&.*.%.F X =.{.{. .X P G h s g H Y 1.|.8.4.9.0.=.a.b.c.$ $ & & & < . d.",
"# . . + . . . ) b q E s W *.&.*.%.W g Q e.3.{. .X P u g F g H Y 1.|.{.f.g.h.'.i.j.k.. . + & # # . . ",
"# > . @ . + # > c d F s W &.*.%.W F t ~.{.l.m. .X P G h F g G Y 1.|.{.n.o.9.p.i.q.r.# $ & & $ & . @ ",
"@   . . ) . # } s.r s F W *.%.W E s G 1.8.n.{. .P P H h s g H ` _.t.{.l.u.v.w.m.x.y.z.# + + $ , > . ",
"# + + . > . # 3 e f s F W %.W E F g X =.A.n.{.-.P P H t s g H ` _.e.B.l.C.D.E.:.a.F.z.+ + ! + & # # ",
", , # # , , m 7 f g g F E W E F s t P |.3.G.{.-.P Q X t H.h X ` I.i.A.n.u.J.K.a.8.L.M.% & & % _ _ _ ",
"# < # # 9 9 N.5 f g h s F E F s g u R e.l.O.{.-.P Q X t g h X ~.=.{.3.O.u.J.P.h.a.L.Q.R.& & & & & & ",
"& , & @ # < 8 6 g h h g s F s g h G R i.n.O.{.-.Q Q X u g t X  .|.B.n.O.o.S.P.x.T.L.U.V.+ + M + # # ",
"& @ + > . @ W.X.h t u h h g g h t X Z {.G.O.{.-.Q Q P u h t P 1.t.A.n.Y.Z.`. +q..+L.U.++M M & M , & ",
"@ @ @ @ @ + 8 X.i t u u t h h t u P  .{.O.Y.{.-.Q @+P u h u Q _.i.3.O.C.F.#+$+q..+%+U.V.M & & & & # ",
", , _ 2 2 _ 1 &+i u G X G t t u G P -.{.O.Y.8._.Q @+P G t G @+=.{.n.Y.u.*+=+-+x.;+Z.M.R.$ & z , + . ",
"& @ @ & & , 2 W.j u H Y P H H H X Q 1.8.Y.C.A.).@+@+P G t H ` e.A.O.C.o.J. +-+;+>+,+'+& & & _ , @ @ ",
"+ ; & @ + @ & 8 )+j X ` R P X P P @+_.A.Y.C.3.=.@+@+Q H u P ;.m.n.C.o.F.`.!+~+;+5.{+]+& ~ & & ; , # ",
"& 2 ( _ & & @ N.w )+X S ` ` Q Q Q ` _.A.Y.C.l.=.@+^+Q H G Q I.A.O.u.F.J. +K.j.4.,+r.+ + + & & + # /+",
"+ , &   : + @ > &+(+X Q -.=.;.~.` ~.=.A.L.C.f.|.^+^+Q X X ` e.f.C.Z.J.#+_+E..+L.{+'+! + ~ ,._ & @ :+",
"M $ + + !   + & y <+Q P  .'.=._.1.1.|.8.4.C.n.|.^+` Q I P  .{.Y.o.*+`.=+[+j.f.%+}+V._ > @ & -   , , ",
"& M $ + #.#.+ & |+x 1+Q ` ].{.m.|.|.2.i.l.G.8.=.^+` Q G @+=.G.o.*+S.$+-+2+3+Y.{+4+& _ + @ @ , > < < ",
"M $ + + + + + + @ 5+6+S Y ` '.:.A.{.{.B.3.3.{._.Q P R Z '.a.7+D.`.$+P.8+3+L.F.4+'+@ , @ @ + & + > > ",
"#.+ M M M M M & , V y 9+Z ` ).<.f.f.l.l.n.l.8.=.!.J 1+<.;+7+D.`.=+-+E.5.4.%+{+++@ + & & + > @ & , & ",
"+ M z % & & & z & & @ 0+T ~.~.-.a+9.%+u.C.C.C.4.;+T.9.g.D.`.=+-+[+2+9.4.C.}+b+# @ + @ , + * @ , # @ ",
"#.M % M + + $ & @ & # c+0+/.d+_.).0.h.9.5.g.D.D.D.,+S.`.K.e+E.f+g+9.3+%+}+4+V.# @ @ @ , > @ @ , & & ",
"M $ + + + + + #.& & , & }.[.p.h+_._.^.p.q.g+e+e+K.P.P.!+~+8+2+T.3.4.%+y.b+V.# , @ & @ , > & & & @ @ ",
"& M + ! + & & + , & # . >   c+i+h.e.|.'.e.<.<.0.p.h.h.a.T.f.f.4.L.S.4+++# > # & ; & @ ,   & & & > > ",
"_ $ $ M #.  + + $ & # # + . + >.i+j+q.h.:.i.i.m.{.a.8.A.l.>+k+y.6.r.z.. @ # @ . + + , @ + + ! + + @ ",
"M + M & $ +   l+! + @ # # @ # < m+z.n+b.5.f.f.f.f.f.4.Y.%+,+}+k.c.# # @ @ . . . @ @ & + + & & _ @ @ ",
"& M + + +     !     + # & # & < @ @ + z.}.Q.o+n+n+n+o+U.k.z.. . @ @ @ @ @ @ # & , & & + ! & & _ , & ",
"& & +         #.+ + . $ $ + @ # @ @ + + ; @ c.]+'+]+++V.. # # @ @ @ . . @ # < _ - , _ & + & + & # @ ",
"@ & + + $ +     + + . + + . . + @ @ + > + > > > @ + . # . < , & < /+:+> . @ # # @ @ & $ + & & & # # ",
"@ , +   $ +   #.+ ! ! ! ! ! . $ + @ + > > + > @     ) # . # @ . , /+. > . @ @ + + > +     M + M @ # ",
"+ &   p++ @ ! & ! ! . + !   ! + + & ; > * * > + + @ # < . @ + @ . d.d.:+@ @ @ + + > +     #.l+    > ",
"' @   ^ $ &   + + + $ $ ! ) ) ! + , & + + >       + + # ^ ) > + ) d.@ @ @ + . . > > & M M M     + + ",
"> @   + % #.#.#.+ !   '   > ! ! # $ . . # $ + +   @ @ + + & & + . > # . @ ) + + > & @ @ > & . > @ ; ",
"> @   + q+#.#.#.!   ' ' > + + $ $ . ! ! # # + & ' + @ + + & & + . . # . @ ) + + + & & & + , @ * @ ; "};
