/* XPM */
static char * porte_xpm[] = {
"50 50 101 2",
"  	c #E3CD9C",
". 	c #E1CB9A",
"+ 	c #DFC998",
"@ 	c #DEC897",
"# 	c #DDC796",
"$ 	c #DDC798",
"% 	c #D8C394",
"& 	c #DBC594",
"* 	c #4B3624",
"= 	c #4C3622",
"- 	c #432D17",
"; 	c #D6C492",
"> 	c #DAC896",
", 	c #E2CC9B",
"' 	c #DAC493",
") 	c #E5D19F",
"! 	c #E5CF9E",
"~ 	c #E1CB9C",
"{ 	c #4F3926",
"] 	c #523A25",
"^ 	c #4E341B",
"/ 	c #482E15",
"( 	c #3A2612",
"_ 	c #E8D2A3",
": 	c #DDCD9A",
"< 	c #423020",
"[ 	c #463322",
"} 	c #4D341D",
"| 	c #412B14",
"1 	c #33220E",
"2 	c #26190B",
"3 	c #E7D1A0",
"4 	c #E0C898",
"5 	c #402D1B",
"6 	c #412E1D",
"7 	c #4F3823",
"8 	c #49331B",
"9 	c #3E2915",
"0 	c #2C1C0C",
"a 	c #3E2B19",
"b 	c #503923",
"c 	c #4B3017",
"d 	c #442C15",
"e 	c #301F0E",
"f 	c #352311",
"g 	c #402912",
"h 	c #D2BE8C",
"i 	c #D7C293",
"j 	c #E4CFA0",
"k 	c #392C21",
"l 	c #23160A",
"m 	c #D4C08E",
"n 	c #D9C392",
"o 	c #2D2D2C",
"p 	c #32261B",
"q 	c #D5BF8E",
"r 	c #4C4B4A",
"s 	c #3E3124",
"t 	c #473B30",
"u 	c #D7C295",
"v 	c #42301F",
"w 	c #2B1E12",
"x 	c #DBC699",
"y 	c #2E2012",
"z 	c #1A1107",
"A 	c #DDCB9D",
"B 	c #DBCB98",
"C 	c #170F07",
"D 	c #DFCF9C",
"E 	c #D6C494",
"F 	c #251E16",
"G 	c #2C241C",
"H 	c #E3CEA1",
"I 	c #34291E",
"J 	c #332B23",
"K 	c #DCC494",
"L 	c #E1CC97",
"M 	c #333333",
"N 	c #462E18",
"O 	c #4C3118",
"P 	c #443426",
"Q 	c #1D1208",
"R 	c #6D5A0A",
"S 	c #896F0B",
"T 	c #5C3E15",
"U 	c #6C5207",
"V 	c #9D7C01",
"W 	c #7D5A03",
"X 	c #573C0C",
"Y 	c #402B07",
"Z 	c #5A3F07",
"` 	c #4A330C",
" .	c #2D2721",
"..	c #DDC893",
"+.	c #180F07",
"@.	c #E0CB96",
"#.	c #2F2924",
"$.	c #3C3C3C",
"%.	c #4E4944",
"&.	c #E8D4A2",
"*.	c #DAC399",
"  . + . + @ @ + @ . + # $ . + % & * = - ; > , + + , . @ . . . . , ' ) + % ! ! $ ~ ~ . + > > > @ > > ",
". + + . . + . . # + + $ +     ~ { ] ^ / ( + + & .   . # # . . ! , > + ,     . _ . . + + @ @ @ : > + ",
". + + . . . . , @ .   . + ~ ~ < [ { ] } | 1 2 ' .   + & # + . ! , ) @ + 3 . . _ $ 4 . . + + @ @ @ @ ",
". . . . . + + . @ .   ~ . . + < 5 6 [ { 7 8 9 1 0   . # @ @ # + @ ) @ @ ~ + ~ $ . . ~ ~ + + @ @ @ @ ",
"+ @ + . + @ @ . # # # $ . ~ ~ < a 9 a 6 [ { b } / c d > + @ @ @ & @ & + $ # ! % ~ ~     , + + + @ @ ",
"# # @ + @ # @ . + # & & $ ~ ~ < a 1 e f 9 6 [ { ] } 8 g 0 + + , @ h i   + & ~ + 3 3 j   + + @ @ & & ",
"' & # @ # & # @ . @ # # # $ $ k ( 0 l l 0 ( a 6 [ { ] } d 1 2 , , m n @ + & & . 3 j   + + @ @ @ ' ' ",
"& # # @ # n n # ' & $ + + & & o p 2 2 2 l l 1 a a 6 [ { b 8 9 1 ( . @ q & + h & + + & & & @ +   # # ",
"# # @ + + @ # & ' & + ~   + + r s l 2 0 0 0 f ( ( ( a 6 [ { = - ( f f & & & $ . + + + + & ' @ , . + ",
"@ # # .   . @ # . + + . + + + t 6 0 2 0 0 a a ( 1 0 e ( 9 6 a f f f f + + $ & & & u & + , + + , + + ",
"+ ' & . ! . # & # # $ + + + + v a 0 2 0 0 a a ( 0 l l l 0 f f w f w 0 .   + $ $ x & & + , + @ , ' ' ",
". # # . , # ' # & # + . . . . < a 0 0 0 0 a a ( 0 l 0 2 l 0 1 y f 0 l # # # $ + + + + + @ ' @ , # @ ",
"! , .   , @ @ , . ,       . . < a 0 0 1 1 a a ( 0 l 0 0 f ( 1 y y 2 z . . ~ A A + B & B + @ @ , @ + ",
"!       . . . ! . , ~ . + . ~ < a 0 0 1 1 | | ( 0 l 0 0 ( | 1 y y l C _ _ 3   + D & E +     @ @ & & ",
"@ . , . . . @ # ' # $ $ $ . ~ < a l 0 f 1 d d f 0 2 0 0 ( | 1 w F l C ! ~ . + x D B B D   , @ @ + + ",
"& . , . . . # q n # + + + . + < ( l 0 f 1 / d 1 0 2 1 0 ( - 1 y G 2 C . $ +   H + A     + & + ) + : ",
"# n # . @ # # q & & + , , @ & < ( l 0 f f / | 1 0 2 1 1 ( | 1 I J 2 C . 4 + # ' + @ + + ~ ~ + # n ' ",
"# # . , . . . @ + : ,   , + + < ( 2 0 ( ( c d 1 0 0 1 1 9 d 1 y f 2 C . K K # . # # $ $ & & & n . L ",
"# . . + . . . ! @ : + + + + + < 9 0 1 ( ( c / ( 0 0 f 1 | c f y f 2 C # n n # @ @ + . . + & # # . . ",
"# , . @ . + # , ' @ @ & ' & & < 9 0 1 9 ( c / ( 0 0 f 1 - c f y f 2 C # 4 4 # n # # # $ & & $ & . @ ",
"@   . . ! . # + & @ + @ & @ & J f 0 f 9 ( c / ( 0 0 f f d d 1 y f 2 C . ,   . # + # & # + + $ ' , . ",
"# + + . , . # # @ @ + @ @ + @ M p 0 ( N | O / ( 0 0 ( ( d d 1 y y l C # # @ . , ! . $ + + ~ + & # # ",
"' ' # # ' ' & ' # & & # @ @ & r s 1 ( | 8 O | 1 0 e ( ( d d 1 y y l C & ' & @ + @ # % % & & % i i i ",
"# n # # q q & ' # n n & @ & @ P a ( ( ( ( | a ( 0 e 9 ( d d 1 y y l z & @ + # n # # & & & & & & & & ",
"& ' & @ # n n & @ # n i # , . < ( 1 e f ( ( ( ( 1 f | ( d d 1 y y l Q & # # ' n + + + $ + + x + # # ",
"& @ + , . @ ' n i # # & # + . < ( 0 l l 0 1 ( 9 ( ( c 8 8 / 1 y y l z # @ @ # ' & @ & & x x & x ' & ",
"@ @ @ @ @ + . + n # . + @ . , < ( l 2 0 l l 0 ( 9 ( R S T d f y y l Q # # # & & @ + & & x & & & & # ",
"' ' i m m i n n + @ & # . , + < ( l 0 0 0 f 1 ( ( f U V W X f y y 2 2 # & & & @ @ + & & $ & u ' + . ",
"& @ @ & & ' m h . # n n # + & < a 2 2 0 0 a a ( 1 2 Y Z ` ` f w F 0 0 # & & + , & > & & & & i ' @ @ ",
"+ > & @ + @ & & + @ # & & # & < a 0 2 0 0 a a ( 0 l l l 2 1 f G  .0 0 # @ & & @ i & $ & B & & > ' # ",
"& m h i & & @ , # + . + # # # < a 0 0 1 0 a a ( 0 l 0 0 2 e 1 p J 2 l @ @ & & & i @ + + + & & + # ..",
"+ ' &   j + @ , # # @ @ @ # # < 9 2 0 1 1 a a ( 0 l 0 0 f | f y y l +.@ @ @ @ @ m @ ~ + B E i & @ @.",
"x $ + + ~   + & i & + . . @ @ < ( 2 0 1 1 - d f 0 l 0 0 ( d f y y l C @ n # n # & & i , @ & ;   ' ' ",
"& x $ + A A + & @ @ + + @ @ @ < ( l 0 f 1 d d 1 0 2 0 0 ( - 1 y y l C # # @ # . & & i + @ @ ' , n n ",
"x $ + + + + + + @ @ # @ @ @ # #.f 2 0 f 1 / d 1 0 2 1 1 ( | 1 y y l C # . # @ # @ @ ' @ @ + & + , , ",
"A + x x x x x & ' & # . , . @ $.I l 0 f f / / f 0 2 1 1 ( | 1 y y 2 C @ , # # ' @ + & & + , @ & ' & ",
"+ x u % & & & u & & @ . ! ! . %.s 2 0 ( ( c / ( 0 0 1 1 g d 1 y f 2 C @ ! + . # @ + @ ' + : @ ' # @ ",
"A x % x + + $ & @ & # # + . . < 9 0 1 ( ( c / ( 0 0 f 1 | d 1 y f l C + , . . # @ @ @ ' , @ @ ' & & ",
"x $ + + + + + A & & ' & # + . < a 0 1 9 ( c / ( 0 0 f 1 - / 1 y y l C . + . # ' @ & @ ' , & & & @ @ ",
"& x + ~ + & & + ' & # . ,     < a 0 f | ( c / 9 0 0 f ( d c 1 y y l C . # , # & > & @ '   & & & , , ",
"i $ $ x A   + + $ & # # + . + 5 ( 1 ( N d O d ( e 0 ( ( d c f y y l C . @ # @ . + + ' @ + + ~ + + @ ",
"x + x & $ +   H ~ + @ # # @ # n 0 0 1 ( d O | ( e e ( ( d / 1 y w l C @ @ . . . @ @ & + + & & i @ @ ",
"& x + + +     ~     + # & # & n @ l 2 0 1 ( ( f 0 e 9 ( d d 1 w F l z @ @ @ # & ' & & + ~ & & i ' & ",
"& & +         A + + . $ $ + @ # @ @ + l 2 0 1 ( 1 f d | / d 1 G J l Q . @ # n i ; ' i & + & + & # @ ",
"@ & + + $ +     + + . + + . . + @ @ + , + l 2 0 ( ( - 8 O d 1 p p l z , . @ # # @ @ & $ + & & & # # ",
"@ ' +   $ +   A + ~ ~ ~ ~ ~ . $ + @ + , , + , l 2 0 f g d a 1 y y 2 Q , . @ @ + + , +     x + x @ # ",
"+ &   &.+ @ ~ & ~ ~ . + ~   ~ + + & > , : : , + + l 2 0 1 f 1 y y 0 2 @.@ @ @ + + , +     A H     , ",
") @   3 $ &   + + + $ $ ~ ! ! ~ + ' & + + ,       + + l 2 0 0 y w l Q @ @ + . . , , & x x x     + + ",
", @   + % A A A + ~   )   , ~ ~ # $ . . # $ + +   @ @ + + l 2 0 2 z # . @ ! + + , & @ @ , & . , @ > ",
", @   + *.A A A ~   ) ) , + + $ $ . ~ ~ # # + & ) + @ + + & & 0 . . # . @ ! + + + & & & + ' @ : @ > "};
