/* XPM */
static char *d72e992ecc134a58a4381e393265f78cwiq3vNK786Z6PHtY[] = {
/* columns rows colors chars-per-pixel */
"50 50 197 2 ",
"   c #D2BE8C",
".  c #D3BF8C",
"X  c #D3BF8D",
"o  c #D3BD8E",
"O  c #D4BE8D",
"+  c #D5BF8E",
"@  c #D7BF8F",
"#  c #D4C08E",
"$  c #D5C18F",
"%  c #D6C08E",
"&  c #D5C091",
"*  c #D7C190",
"=  c #D6C091",
"-  c #D6C290",
";  c #D7C390",
":  c #D7C391",
">  c #D6C192",
",  c #D7C192",
"<  c #D5C393",
"1  c #D7C293",
"2  c #D6C492",
"3  c #D7C295",
"4  c #D6C494",
"5  c #D7C595",
"6  c #D8C290",
"7  c #D8C291",
"8  c #D9C391",
"9  c #D9C392",
"0  c #D8C293",
"q  c #DAC292",
"w  c #DBC393",
"e  c #D9C590",
"r  c #D8C491",
"t  c #D8C492",
"y  c #D9C592",
"u  c #D9C593",
"i  c #DAC492",
"p  c #DAC493",
"a  c #DBC593",
"s  c #D8C793",
"d  c #DAC693",
"f  c #DCC593",
"g  c #D8C394",
"h  c #D9C394",
"j  c #D8C396",
"k  c #DAC397",
"l  c #D9C495",
"z  c #DBC594",
"x  c #DAC495",
"c  c #D8C694",
"v  c #D9C795",
"b  c #DAC694",
"n  c #DBC794",
"m  c #DBC795",
"M  c #D9C497",
"N  c #DAC596",
"B  c #DBC596",
"V  c #D8C696",
"C  c #D9C797",
"Z  c #DBC697",
"A  c #DCC494",
"S  c #DDC595",
"D  c #DCC694",
"F  c #DCC695",
"G  c #DDC795",
"H  c #DEC795",
"J  c #DDC796",
"K  c #DCC697",
"L  c #DEC696",
"P  c #DFC797",
"I  c #DDC893",
"U  c #DAC896",
"Y  c #DBC997",
"T  c #DBCA96",
"R  c #DCC895",
"E  c #DCC896",
"W  c #DDC996",
"Q  c #DDC997",
"!  c #DEC896",
"~  c #DFC896",
"^  c #DEC897",
"/  c #DFC997",
"(  c #DECA97",
")  c #DAC399",
"_  c #DAC598",
"`  c #D8C698",
"'  c #DBC699",
"]  c #DAC59A",
"[  c #DBC69B",
"{  c #DCC599",
"}  c #DCC798",
"|  c #DDC798",
" . c #DFC799",
".. c #DCC79A",
"X. c #DCC79C",
"o. c #DAC898",
"O. c #DBC999",
"+. c #DBCB98",
"@. c #DAC89A",
"#. c #DDC899",
"$. c #DFC998",
"%. c #DEC899",
"&. c #DCCA98",
"*. c #DDCB99",
"=. c #DECA98",
"-. c #DFCB98",
";. c #DFCB99",
":. c #DDC89B",
">. c #DEC99A",
",. c #DFC99A",
"<. c #DCCA9A",
"1. c #DDCB9B",
"2. c #DFCA9B",
"3. c #DDCC98",
"4. c #DCCC99",
"5. c #DDCD9A",
"6. c #DECC9A",
"7. c #DDC89D",
"8. c #DFC89C",
"9. c #DEC99C",
"0. c #DCCA9C",
"q. c #DDCB9D",
"w. c #DFCA9D",
"e. c #DFC89E",
"r. c #DEC99E",
"t. c #DFCD9D",
"y. c #DFCF9C",
"u. c #E1C796",
"i. c #E0CB96",
"p. c #E1CC97",
"a. c #E0C898",
"s. c #E1C999",
"d. c #E0CA98",
"f. c #E0CA99",
"g. c #E1CB99",
"h. c #E0C89A",
"j. c #E1C99B",
"k. c #E1CB9A",
"l. c #E0CA9B",
"z. c #E2CA9A",
"x. c #E3CB9B",
"c. c #E4CA99",
"v. c #E5CB9A",
"b. c #E0CC99",
"n. c #E2CD98",
"m. c #E0CC9A",
"M. c #E1CD9A",
"N. c #E1CD9B",
"B. c #E2CC9A",
"V. c #E3CC9A",
"C. c #E2CC9B",
"Z. c #E2CE9B",
"A. c #E0CB9C",
"S. c #E1CB9C",
"D. c #E2CA9C",
"F. c #E3CB9D",
"G. c #E1CA9E",
"H. c #E0CB9E",
"J. c #E1CC9D",
"K. c #E3CD9C",
"L. c #E2CC9D",
"P. c #E0CE9C",
"I. c #E2CE9C",
"U. c #E3CF9D",
"Y. c #E1CC9F",
"T. c #E2CD9E",
"R. c #E3CD9E",
"E. c #E3CE9F",
"W. c #E4CC9C",
"Q. c #E5CD9D",
"!. c #E7CD9C",
"~. c #E4CE9C",
"^. c #E4CE9D",
"/. c #E5CF9D",
"(. c #E4CC9E",
"). c #E5CF9E",
"_. c #E4CE9F",
"`. c #E8CE9D",
"'. c #E0D09D",
"]. c #E1D19E",
"[. c #E4D09D",
"{. c #E4D09E",
"}. c #E5D19F",
"|. c #E6D29F",
" X c #E3CEA1",
".X c #E4CFA0",
"XX c #E5CFA0",
"oX c #E7D1A0",
"OX c #E6D0A1",
"+X c #E6D2A0",
"@X c #E7D3A1",
"#X c #E7D1A2",
"$X c #E9D1A3",
"%X c #E8D2A3",
"&X c #EAD2A2",
"*X c #EBD3A3",
"=X c #E8D4A2",
/* pixels */
"K.k.$.k.$.^ ^ $.^ k.$.J | k.$.g z 5.].5.2 U C.$.$.C.k.^ k.k.k.k.C.p }.$.g ).).| S.S.k.$.U U U ^ U U ",
"k.$.$.k.k.$.k.k.J $.$.| $.K.K.S.$.+.y.].$.$.$.z k.K.k.J J k.k.).C.U $.C.K.K.k.%Xk.k.$.$.^ ^ ^ 5.U $.",
"k.$.$.k.k.k.k.C.^ k.K.k.$.S.S.$.5.z U K.C.$.^ p k.K.$.z J $.k.).C.}.^ $.oXk.k.%X| a.k.k.$.$.^ ^ ^ ^ ",
"k.k.k.k.k.$.$.k.^ k.K.S.k.k.$.z K.U z +.$.C.C.z $.K.k.J ^ ^ J $.^ }.^ ^ S.$.S.| k.k.S.S.$.$.^ ^ ^ ^ ",
"$.^ $.k.$.^ ^ k.J J J | k.S.S.$.5.$.$.z z C.K.^ $.C.$.U $.^ ^ ^ z ^ z $.| J ).g S.S.K.K.C.$.$.$.^ ^ ",
"J J ^ $.^ J ^ k.$.J z z | S.S.S.z $.C.^ p ^ $.p ^ C.$.z ^ $.$.C.^   1 K.$.z S.$.oXoX.XK.$.$.^ ^ z z ",
"p z J ^ J z J ^ k.^ J J J | | | 9 z $.$.z J ^ p z $.$.z +.$.$.C.C.# 9 ^ $.z z k.oX.XK.$.$.^ ^ ^ p p ",
"z J J ^ J 9 9 J p z | $.$.z z z z p ^ C.k.$.C.C.1 ' $.| $.+.z z k.k.^ + z $.  z $.$.z z z ^ $.K.J J ",
"J J ^ $.$.^ J z p z $.S.K.$.$.$.+ 9 J C.p ^ g K.$.$.+.z ' +.q.$.k.J z z z z | k.$.$.$.$.z p ^ C.k.$.",
"^ J J k.K.k.^ J k.$.$.k.$.$.$.S.k.k.^ J 9 J z K.z | z z z +.q.$.J f J $.$.| z z z 3 z $.C.$.$.C.$.$.",
"$.p z k.).k.J z J J | $.$.$.$.K.k.J ^ p $.k.| z z z ' ' ` +.+.' J ^ k.k.K.$.| | ' z z $.C.$.^ C.p p ",
"k.J J k.C.J p J z J $.k.k.k.k.k.$.z k.p k.k.$.g | | | ' ` ` ` z a.u.J J J J | $.$.$.$.$.^ p ^ C.J ^ ",
").C.k.K.C.^ ^ C.k.C.K.K.K.k.k.$.oXk.K.p $.$.$.z q.q.| | X.' ' ' k.c.k.k.k.S.q.q.$.+.z +.$.^ ^ C.^ $.",
").K.K.K.k.k.k.).k.C.S.k.$.k.S.S.K.J k.^ $.$.z $.q.X.| | q.X.q.q.k.).%X%X%XoXK.$.y.z 4 $.K.K.^ ^ z z ",
"^ k.C.k.k.k.^ J p J | | | k.S.S.^ 1 z C.C.C.z $.q.| | q.q.q.q.S.J c.).).S.k.$.' y.+.+.y.K.C.^ ^ $.$.",
"z k.C.k.k.k.J + 9 J $.$.$.k.$.J oX^ 1 $.^ K.z K. Xq.| q.$.| $.S.).`.).k.| $.K. X$.q.K.K.$.z $.}.$.5.",
"J 9 J k.^ J J + z z $.C.C.^ z ^ $.^ ^ $.$.z z ' $.S.| | S.k.$.k.k.k.k.k.a.$.J p $.^ $.$.S.S.$.J 9 p ",
"J J k.C.k.k.k.^ $.5.C.K.C.$.$.C.p p ^ K. X$.' | $.| z $.k.J ^ ).k.W.).k.A A J k.J J | | z z z 9 k.p.",
"J k.k.$.k.k.k.).^ 5.$.$.$.$.$.^ p 1 p ^ $.$.$.$.| z g | ^ 9 p ).J k.k.J 9 9 J ^ ^ $.k.k.$.z J J k.k.",
"J C.k.^ k.$.J C.p ^ ^ z p z z p ^ p p z z z z $.| z g z J 9 9 ^ J J J J a.a.J 9 J J J | z z | z k.^ ",
"^ K.k.k.).k.J $.z ^ $.^ z ^ z 1 ^ U ^ $.S.$.z z z $.J g J ^ p 9 J J J k.C.K.k.J $.J z J $.$.| p C.k.",
"J $.$.k.C.k.J J ^ ^ $.^ ^ $.^ p ^ z z ^ $.$.$.| g $.| g $.K.^ 9 J J k.J J ^ k.C.).k.| $.$.S.$.z J J ",
"p p J J p p z p J z z J ^ ^ z z $.^ p 2 z | $.$.g $.J z ^ C.^ p p J ^ z p z ^ $.^ J g g z z g 1 1 1 ",
"J 9 J J + + z p J 9 9 z ^ z ^ $.$.^ U U $.$.z 1 9 z z z J J p J J J z z ^ $.J 9 J J z z z z z z z z ",
"z p z ^ J 9 9 z ^ J 9 1 J C.k.9 $.^ p ^ z g | | z | $.1 ^ J ^ p k.^ J z J J p 9 $.$.$.| $.$.' $.J J ",
"z ^ $.C.k.^ p 9 1 J J z J $.k.$.^ ^ p z z 1 z z 1 z $.9 $.J J 9 p p p J ^ ^ J p z ^ z z ' ' z ' p z ",
"^ ^ ^ ^ ^ $.k.$.9 J k.$.^ k.C.k.^ ^ p z z g z z 9 J $.z k.J J p z J J J J J z z ^ $.z z ' z z z z J ",
"p p 1 # # 1 9 9 $.^ z J k.C.$.p ^ ^ z ^ $.z $.| z | $.g k.J ^ ^ k.k.$.J z z z ^ ^ $.z z | z 3 p $.k.",
"z ^ ^ z z p #   k.J 9 9 J $.z + ^ ^ z z z g z g z z | 9 $.z J J J J J J z z $.C.z U z z z z 1 p ^ ^ ",
"$.U z ^ $.^ z z $.^ J z z J z z ^ C.z z g 1 g 1 9 z $.z k.J J p 9 z J J ^ z z ^ 1 z | z +.z z U p J ",
"z #   1 z z ^ C.J $.k.$.J J J $.5.C.U z g 1 z 1 g z $.z C.J J J J ^ ^ ^ ^ z z z 1 ^ $.$.$.z z $.J I ",
"$.p z K..X$.^ C.J J ^ ^ ^ J J J ^ $.z p 1 1 z 1 g z z 1 $.p J J $.$.^ ^ ^ ^ ^ ^ # ^ S.$.+.4 1 z ^ i.",
"' | $.$.S.K.$.z 1 z $.k.k.^ ^ ^ 5.$.^ $.^ z z z U U J ^ k.k.$.^ ^ J 9 ^ 9 J 9 J z z 1 C.^ z 2 K.p p ",
"z ' | $.q.q.$.z ^ ^ $.$.^ ^ ^ ^ C.$.^ ^ ^ z z z U U ^ C.K.K.k.$.z p 9 J J ^ J k.z z 1 $.^ ^ p C.9 9 ",
"' | $.$.$.$.$.$.^ ^ J ^ ^ ^ J J ^ z z z ^ ^ ^ $.$.^ ^ $.k.k.^ z J z J J k.J ^ J ^ ^ p ^ ^ $.z $.C.C.",
"q.$.' ' ' ' ' z p z J k.C.k.^ p p p z z ^ ^ $.$.$.^ z J ^ $.J z k.^ C.^ C.J J p ^ $.z z $.C.^ z p z ",
"$.' 3 g z z z 3 z z ^ k.).).k.J ^ ^ $.$.^ ^ U z z z z ^ C.K.C.k.J J k.^ ).$.k.J ^ $.^ p $.5.^ p J ^ ",
"q.' g ' $.$.| z ^ z J J $.k.k.^ $.5.C.$.$.$.$.^ z z $.K.).K.$.J J J k.$.C.k.k.J ^ ^ ^ p C.^ ^ p z z ",
"' | $.$.$.$.$.q.z z p z J $.k.k.^ 5.$.^ ^ $.$.^ z ^ k.C.k.^ z 9 ^ k.^ k.$.k.J p ^ z ^ p C.z z z ^ ^ ",
"z ' $.S.$.z z $.p z J k.C.K.K.K.C.C.$.z p z z p p z ^ ^ ^ ^ $.k.J k.J k.J C.J z U z ^ p K.z z z C.C.",
"1 | | ' q.K.$.$.| z J J $.k.$.J # p $.5.^ $.C.$.p ^ C.$.).$.^ ^ J ^ k.k.^ J ^ k.$.$.p ^ $.$.S.$.$.^ ",
"' $.' z | $.K. XS.$.^ J J ^ J 9 p z 5.$.p z ^ z $.$.$.9 $.p p z p J J ^ ^ k.k.k.^ ^ z $.$.z z 1 ^ ^ ",
"z ' $.$.$.K.K.S.K.K.$.J z J z 9 ^ ^ $.$.p p ^ z C.C.$.9 k.J k.k.^ ^ ^ ^ ^ ^ J z p z z $.S.z z 1 p z ",
"z z $.K.K.K.K.q.$.$.k.| | $.^ J ^ ^ $.$.U ^ C.$.z z J 9 k.J J ^ ^ ^ k.k.^ J 9 1 2 p 1 z $.z $.z J ^ ",
"^ z $.$.| $.K.K.$.$.k.$.$.k.k.$.^ ^ $.C.$.C.C.C.^ $.k.J k.9 p z 9 I i.C.k.^ J J ^ ^ z | $.z z z J J ",
"^ p $.K.| $.K.q.$.S.S.S.S.S.k.| $.^ $.C.C.$.C.^ K.K.).J k.J ^ k.p I k.C.k.^ ^ $.$.C.$.K.K.' $.' ^ J ",
"$.z K.=X$.^ S.z S.S.k.$.S.K.S.$.$.z U C.5.5.C.$.$.^ J 9 k.^ $.^ k.p.p.i.^ ^ ^ $.$.C.$.K.K.q. XK.K.C.",
"}.^ K.oX| z K.$.$.$.| | S.).).S.$.p z $.$.C.K.K.K.$.$.J oX).C.$.).p.^ ^ ^ $.k.k.C.C.z ' ' ' K.K.$.$.",
"C.^ K.$.g q.q.q.$.S.K.}.K.C.S.S.J | k.k.J | $.$.K.^ ^ $.$.z z $.k.C.J k.^ ).$.$.C.z ^ ^ C.z k.C.^ U ",
"C.^ K.$.) q.q.q.S.K.}.}.C.$.$.| | k.S.S.J J $.z }.$.^ $.$.z z $.k.k.J k.^ ).$.$.$.z z z $.p ^ 5.^ U "
};
